<?xml version="1.0" encoding="utf-8"?>
<!-- Generator: Adobe Illustrator 21.1.0, SVG Export Plug-In . SVG Version: 6.00 Build 0)  -->
<svg version="1.1" id="Layer_1" xmlns="http://www.w3.org/2000/svg" xmlns:xlink="http://www.w3.org/1999/xlink" x="0px" y="0px"
	 viewBox="0 0 57 57" style="enable-background:new 0 0 57 57;" xml:space="preserve">
<style type="text/css">
	.st0{fill:#FFFFFF;stroke:#010101;stroke-miterlimit:10;}
	.st1{stroke:#FFFFFF;stroke-width:4;stroke-miterlimit:10;}
	.st2{fill:none;stroke:#754D25;stroke-width:2;stroke-miterlimit:10;}
	.st3{fill:#666766;stroke:#010101;stroke-miterlimit:10;}
</style>
<title>Barbarian</title>
<path class="st0" d="M46.5,56.5h-36c-5.5,0-10-4.5-10-10v-36c0-5.5,4.5-10,10-10h36c5.5,0,10,4.5,10,10v36
	C56.5,52,52,56.5,46.5,56.5z"/>
<path class="st1" d="M14.5,47.5"/>
<line class="st2" x1="9.5" y1="47.5" x2="44.5" y2="13.5"/>
<path class="st3" d="M46.5,17.5c-2.8,0-5-2.3-5-5c0-1.2,0.4-2.3,1.1-3.2c-1.5-0.5-3.1-0.8-4.7-0.8c-6.9,0-12.5,4.9-12.5,11
	c0,1.4,0.3,2.8,0.9,4.1c1.5-2.3,4.6-2.9,6.9-1.4c2.3,1.5,2.9,4.6,1.4,6.9c-0.2,0.3-0.4,0.5-0.6,0.7c1.3,0.4,2.6,0.6,3.9,0.5
	c6.9,0,12.5-4.9,12.5-11c0-1.1-0.2-2.3-0.6-3.4C49,17,47.8,17.5,46.5,17.5z"/>
</svg>
