<svg id="Layer_1" data-name="Layer 1" xmlns="http://www.w3.org/2000/svg" viewBox="0 0 57 57"><defs><style>.cls-1,.cls-3{fill:#5f3916;}.cls-1{stroke:#010101;}.cls-1,.cls-2,.cls-3{stroke-miterlimit:10;}.cls-2{stroke:#fff;stroke-width:4px;}.cls-3{stroke:#009247;stroke-width:2px;}</style></defs><title>Druid</title><path class="cls-1" d="M46.5,56.5h-36a10,10,0,0,1-10-10v-36a10,10,0,0,1,10-10h36a10,10,0,0,1,10,10v36A10,10,0,0,1,46.5,56.5Z"/><path class="cls-2" d="M14.5,47.5"/><text></text><path class="cls-3" d="M27.5,48.5a16.05,16.05,0,0,0-7-11,15.92,15.92,0,0,0-12-2"/><path class="cls-3" d="M29.5,48.5a12.5,12.5,0,0,1,16-12"/><path class="cls-3" d="M28.5,48.5c0-7.69-1.22-21.74-11-33a40.58,40.58,0,0,0-4-4"/></svg>