<svg id="Layer_1" data-name="Layer 1" xmlns="http://www.w3.org/2000/svg" viewBox="0 0 57 57"><defs><style>.cls-1{fill:#009247;stroke:#010101;}.cls-1,.cls-2,.cls-3,.cls-4,.cls-5{stroke-miterlimit:10;}.cls-2{stroke:#fff;stroke-width:4px;}.cls-3{fill:#5f3916;stroke:#009247;}.cls-3,.cls-4,.cls-5{stroke-width:2px;}.cls-4{fill:none;stroke:#5f3916;}.cls-5{fill:gray;stroke:gray;}</style></defs><title>Scout</title><path class="cls-1" d="M46.5,56.5h-36a10,10,0,0,1-10-10v-36a10,10,0,0,1,10-10h36a10,10,0,0,1,10,10v36A10,10,0,0,1,46.5,56.5Z"/><path class="cls-2" d="M14.5,47.5"/><text></text><path class="cls-3" d="M45.5,36.5"/><path class="cls-3" d="M34.5,38.5"/><path class="cls-3" d="M29.5,48.5"/><path class="cls-3" d="M13.5,11.5"/><path class="cls-3" d="M17.5,15.5"/><path class="cls-3" d="M28.5,48.5"/><line class="cls-4" x1="11" y1="45" x2="42" y2="9"/><rect class="cls-5" x="37" y="12" width="9" height="5" transform="translate(19.51 -23.57) rotate(40.73)"/><line class="cls-4" x1="46.54" y1="45" x2="15.54" y2="9"/><rect class="cls-5" x="11.54" y="12" width="9" height="5" transform="translate(37.66 15.02) rotate(139.27)"/></svg>