<svg id="Layer_1" data-name="Layer 1" xmlns="http://www.w3.org/2000/svg" viewBox="0 0 57 57"><defs><style>.cls-1{fill:#93288d;stroke:#010101;}.cls-1,.cls-2,.cls-3,.cls-5,.cls-6,.cls-7,.cls-8{stroke-miterlimit:10;}.cls-2{stroke:#fff;stroke-width:4px;}.cls-3{fill:#5f3916;stroke:#009247;}.cls-3,.cls-5,.cls-6,.cls-7,.cls-8{stroke-width:2px;}.cls-4{fill:#666766;}.cls-5,.cls-8{fill:none;}.cls-5,.cls-6,.cls-7{stroke:#666766;}.cls-6{fill:#754d25;}.cls-7{fill:gray;}.cls-8{stroke:#754d25;}</style></defs><title>Warrior</title><path class="cls-1" d="M46.5,56.5h-36a10,10,0,0,1-10-10v-36a10,10,0,0,1,10-10h36a10,10,0,0,1,10,10v36A10,10,0,0,1,46.5,56.5Z"/><path class="cls-2" d="M14.5,47.5"/><text></text><path class="cls-3" d="M45.5,36.5"/><path class="cls-3" d="M34.5,38.5"/><path class="cls-3" d="M29.5,48.5"/><path class="cls-3" d="M13.5,11.5"/><path class="cls-3" d="M17.5,15.5"/><path class="cls-3" d="M28.5,48.5"/><path class="cls-4" d="M28,5c.41,3.58.63,7.17.78,10.75S29,22.92,29,26.5s-.06,7.17-.22,10.75S28.42,44.42,28,48c-.42-3.58-.63-7.17-.78-10.75S27,30.08,27,26.5s.06-7.17.22-10.75S27.59,8.58,28,5Z"/><line class="cls-5" x1="23" y1="11" x2="33" y2="11"/><circle class="cls-6" cx="28" cy="28" r="14.5"/><circle class="cls-7" cx="27.5" cy="27.5" r="2.5"/><line class="cls-8" x1="28" y1="4" x2="28" y2="10"/></svg>