<svg id="Layer_1" data-name="Layer 1" xmlns="http://www.w3.org/2000/svg" viewBox="0 0 58 58"><defs><style>.cls-1{fill:#fff;stroke:#000;stroke-miterlimit:10;}</style></defs><title>AntiPaladin</title><rect class="cls-1" x="0.5" y="0.5" width="57" height="57" rx="10" ry="10"/><path d="M48.38,20.07c.31,0,.75,0,.83-.19s-.33-.57-.58-.78c-1.77-1.42-3.46-1.72-4.63-2.87s-.41-1.67-1.56-3a5.61,5.61,0,0,0-4.67-2c-2.7.36-4.3,3.52-4.77,5.6-.8,3.54.82,7.72.83,7.79a1.78,1.78,0,0,1-.29,1.56,1.74,1.74,0,0,1-1.46.19c-1.82-.37-5.56.6-8.52,1.36C15.82,29.67,10.09,40.19,8.26,41c-.08,0-.48.2-.49.44s.72.59,1,.68a43.16,43.16,0,0,0,17,2.58c4.62-.44,7-.66,9.88-2.19,2.16-1.13,5.67-2.78,7.3-6.67a10,10,0,0,0,.63-6.48,12.67,12.67,0,0,0-2.09-3.9,22.69,22.69,0,0,1-1.95-2.82,5,5,0,0,1-.68-1.31c0-.13-.4-1.56.24-2.29s1.7-.47,3.07-.24C44.25,19.15,46.57,20,48.38,20.07Z" transform="translate(0.5 0.5)"/></svg>